# xmcd
#
# Track frame offsets: 
#        150
#        15337
#        27327
#        36282
#        46387
#        58077
#        72097
#        83437
#        96170
#        107227
#
# Disc length: 1596 seconds
#
# Revision: 1
# Processed by: cddbd v1.5PL3 Copyright (c) Steve Scherf et al.
# Submitted via: ExactAudioCopy v0.90b4
#
DISCID=77063a0a
DTITLE=John Conlee - Rose Clored Glasses
DYEAR=1900
DGENRE=Country
TTITLE0=Rose Colored Glasses
TTITLE1=Something Special
TTITLE2=I'll Be Easy
TTITLE3=Let Your Love Fall Back On Me
TTITLE4=Backside Of Thirty
TTITLE5=Lady Lay Down
TTITLE6=She Loves My Troubles Away
TTITLE7=Just Let It Slide
TTITLE8=Some Old California Memory
TTITLE9=Hold On
EXTD=
EXTT0=
EXTT1=
EXTT2=
EXTT3=
EXTT4=
EXTT5=
EXTT6=
EXTT7=
EXTT8=
EXTT9=
PLAYORDER=
